<?xml version="1.0" standalone="no"?>
<!DOCTYPE svg PUBLIC "-//W3C//DTD SVG 20010904//EN"
 "http://www.w3.org/TR/2001/REC-SVG-20010904/DTD/svg10.dtd">
<svg version="1.0" xmlns="http://www.w3.org/2000/svg"
 width="4675.000000pt" height="4675.000000pt" viewBox="0 0 4675.000000 4675.000000"
 preserveAspectRatio="xMidYMid meet">

<g transform="translate(0.000000,4675.000000) scale(0.100000,-0.100000)"
fill="#000000" stroke="none">
<path d="M11840 30700 l0 -1220 1720 0 1720 0 0 1220 0 1220 -1720 0 -1720 0
0 -1220z"/>
<path d="M26620 25135 c0 -4517 3 -6785 10 -6785 7 0 10 -176 10 -507 l0 -508
-34 61 c-87 163 -218 290 -386 374 -197 99 -547 171 -760 156 -397 -29 -741
-175 -950 -404 -140 -152 -210 -332 -210 -541 l0 -74 -28 39 c-41 56 -125 129
-202 175 -88 52 -199 92 -392 139 -95 23 -178 50 -205 65 -169 100 15 269 233
214 55 -14 90 -53 158 -173 26 -47 50 -86 52 -86 2 0 88 27 191 61 104 33 209
67 236 76 l47 15 -31 56 c-197 349 -369 456 -734 457 -89 0 -174 -6 -210 -14
-155 -34 -316 -121 -409 -221 -157 -168 -160 -431 -7 -593 83 -88 299 -189
489 -227 255 -52 352 -111 352 -212 0 -68 -47 -124 -131 -153 -80 -28 -201
-13 -251 32 -30 27 -64 100 -81 176 -8 38 -18 71 -20 74 -5 5 -359 -21 -459
-33 -57 -7 -57 -9 -27 -127 56 -219 175 -375 349 -456 120 -56 208 -74 380
-75 192 -1 273 15 418 85 86 42 117 63 181 127 92 91 135 170 154 282 11 62
15 71 21 50 14 -43 90 -152 151 -218 243 -263 637 -408 1050 -388 455 22 827
225 1030 562 l35 58 0 -287 0 -287 285 0 285 0 2 861 3 861 355 -851 355 -851
201 0 c186 0 202 1 218 19 10 11 15 25 11 30 -7 13 18 81 315 851 269 695 332
862 328 865 -15 10 -493 102 -498 96 -3 -5 -88 -230 -190 -500 -101 -270 -187
-487 -190 -483 -4 4 -100 225 -214 492 -115 267 -211 488 -215 492 -3 4 -112
-20 -241 -52 -129 -33 -236 -60 -237 -60 -2 0 -3 108 -3 240 l0 240 1310 0
1310 0 0 580 c0 678 -7 646 101 483 269 -410 659 -753 1129 -992 367 -188 743
-303 1200 -368 171 -24 571 -24 755 0 125 17 376 61 412 73 21 7 -102 -116
-242 -241 -55 -50 -105 -95 -111 -101 -6 -5 -35 -30 -64 -55 -29 -24 -58 -48
-64 -54 -142 -127 -482 -394 -719 -564 -243 -174 -668 -451 -832 -541 -33 -18
-87 -50 -120 -70 -352 -214 -1150 -591 -1590 -750 -27 -10 -81 -30 -120 -45
-221 -83 -478 -164 -920 -291 -27 -8 -142 -37 -254 -64 -576 -141 -1186 -236
-1841 -286 -323 -25 -1417 -24 -1549 1 -9 1 -54 6 -101 9 -257 20 -578 58
-880 106 -89 14 -277 49 -385 71 -55 12 -111 23 -125 25 -93 15 -578 136 -765
191 -472 137 -977 320 -1390 503 -216 95 -215 95 -465 218 -205 100 -241 115
-285 115 -179 0 -277 -225 -152 -353 42 -44 450 -246 787 -392 63 -27 129 -55
145 -63 212 -94 823 -312 1120 -400 202 -60 568 -157 700 -186 386 -85 444
-96 705 -139 265 -44 491 -75 690 -95 30 -3 71 -8 90 -10 19 -2 76 -7 125 -11
50 -3 102 -7 116 -9 15 -2 89 -6 165 -10 77 -4 149 -8 161 -10 12 -2 154 -6
315 -10 615 -15 1322 33 1958 131 918 141 1810 393 2685 757 749 312 1551 757
2200 1221 236 168 536 397 656 500 19 17 46 40 60 51 385 314 988 903 1265
1235 20 25 112 119 204 210 93 91 197 199 232 240 379 446 630 1078 738 1855
55 405 53 312 58 2565 2 1466 0 2137 -8 2260 -50 781 -257 1462 -601 1976
-554 828 -1435 1214 -2614 1145 -1060 -62 -1813 -407 -2236 -1023 -48 -70 -65
-88 -85 -88 l-24 0 0 2135 0 2135 -1720 0 -1720 0 0 -6785z m4851 1232 c383
-100 603 -401 683 -938 34 -224 37 -456 33 -2179 -4 -1833 -2 -1780 -58 -2036
-104 -479 -355 -747 -769 -819 -130 -23 -366 -21 -465 4 -262 67 -458 245
-600 545 -113 238 -176 500 -217 906 -19 182 -19 3004 0 3205 78 842 349 1240
906 1331 129 21 368 12 487 -19z m-5762 -8887 c192 -55 336 -165 404 -308 30
-63 32 -74 32 -177 0 -104 -2 -114 -33 -179 -46 -99 -151 -200 -263 -255 -126
-62 -191 -76 -349 -76 -158 0 -225 15 -346 76 -203 101 -314 272 -302 462 13
205 201 400 452 468 95 26 295 21 405 -11z"/>
<path d="M20675 28763 c-1803 -60 -2986 -541 -3617 -1468 -315 -464 -485
-1012 -528 -1705 -14 -226 -13 -4474 0 -4670 86 -1211 761 -2056 2010 -2518
493 -182 1068 -296 1785 -354 217 -18 1200 -18 1425 0 891 70 1567 231 2115
504 339 169 569 332 811 573 206 206 353 405 484 658 183 352 294 724 350
1179 19 157 20 222 20 2347 0 1378 -4 2238 -10 2326 -78 1076 -510 1871 -1300
2391 -535 353 -1198 570 -2065 679 -410 51 -1003 74 -1480 58z m632 -2097
c430 -88 680 -365 760 -841 17 -105 18 -225 18 -2505 0 -2262 -1 -2400 -18
-2478 -112 -519 -419 -735 -1042 -735 -272 0 -429 30 -605 115 -93 45 -115 61
-195 142 -136 137 -204 282 -246 524 -18 111 -19 178 -19 2385 0 1368 4 2322
10 2397 46 599 333 938 855 1009 95 13 393 5 482 -13z"/>
<path d="M11840 23183 c0 -3569 -4 -5337 -11 -5416 -30 -350 -157 -574 -384
-678 -107 -48 -188 -59 -455 -59 l-240 0 0 -1041 0 -1040 953 4 c994 5 1035 6
1351 52 542 80 983 245 1315 493 103 77 270 239 346 337 342 438 507 986 555
1845 6 110 10 2150 10 5488 l0 5312 -1720 0 -1720 0 0 -5297z"/>
<path d="M21565 17965 c-245 -38 -463 -143 -644 -311 -96 -89 -163 -178 -216
-289 -65 -134 -79 -197 -79 -350 0 -112 3 -138 23 -188 80 -202 328 -439 596
-571 168 -83 312 -121 499 -133 335 -20 642 104 899 365 l79 79 -177 78 c-97
43 -182 78 -188 78 -7 0 -55 -29 -107 -65 -164 -112 -204 -126 -410 -135 -97
-4 -144 -2 -210 11 -101 21 -225 77 -297 134 -47 37 -133 138 -133 155 0 4
318 7 708 7 447 0 720 4 744 10 148 41 169 276 51 569 -70 173 -145 265 -297
365 -110 71 -205 119 -301 151 -152 51 -368 67 -540 40z m317 -400 c154 -32
294 -134 361 -262 19 -38 38 -79 42 -92 l7 -24 -263 7 c-318 8 -699 23 -792
32 l-67 6 27 50 c47 86 141 171 246 223 145 72 291 92 439 60z"/>
<path d="M29915 17965 c-245 -38 -463 -143 -644 -311 -96 -89 -163 -178 -216
-289 -65 -134 -79 -197 -79 -350 0 -112 3 -138 23 -188 80 -202 328 -439 596
-571 168 -83 312 -121 499 -133 335 -20 642 104 899 365 l79 79 -177 78 c-97
43 -182 78 -188 78 -7 0 -55 -29 -107 -65 -164 -112 -204 -126 -410 -135 -97
-4 -144 -2 -210 11 -101 21 -225 77 -297 134 -47 37 -133 138 -133 155 0 4
318 7 708 7 447 0 720 4 744 10 148 41 169 276 51 569 -70 173 -145 265 -297
365 -110 71 -205 119 -301 151 -152 51 -368 67 -540 40z m317 -400 c154 -32
294 -134 361 -262 19 -38 38 -79 42 -92 l7 -24 -263 7 c-318 8 -699 23 -792
32 l-67 6 27 50 c47 86 141 171 246 223 145 72 291 92 439 60z"/>
<path d="M19050 16965 l0 -855 280 0 280 0 0 506 c0 552 -1 541 58 597 15 14
54 42 87 62 53 31 65 35 105 29 25 -3 62 -17 82 -30 21 -13 40 -24 43 -24 3 0
46 -27 95 -60 49 -33 92 -60 94 -60 5 0 425 257 435 266 13 12 -144 147 -235
203 -28 17 -125 54 -215 82 -161 50 -166 51 -269 46 -84 -3 -123 -10 -192 -34
l-88 -31 0 79 0 79 -280 0 -280 0 0 -855z"/>
</g>
</svg>
